<svg id="S-logo" xmlns="http://www.w3.org/2000/svg" xmlns:xlink="http://www.w3.org/1999/xlink" viewBox="0 0 800 907.72"><defs><style>.cls-1{fill:transparent;}.cls-2{fill:#fff;}</style><linearGradient id="Degradado_sin_nombre_12" x1="146.79" y1="301.54" x2="878.55" y2="723.24" gradientUnits="userSpaceOnUse"><stop offset="0" stop-color="#4a2d92"/><stop offset="0.71" stop-color="#7445ad"/><stop offset="1" stop-color="#944cc0"/></linearGradient></defs><title>S-logo</title><path class="cls-1" d="M512,955.86a41.88,41.88,0,0,1-20.92-5.61l-348.16-201A42,42,0,0,1,122,713V311a42,42,0,0,1,20.92-36.24l348.16-201a41.81,41.81,0,0,1,41.84,0l348.16,201A42,42,0,0,1,902,311V713a42,42,0,0,1-20.92,36.24l-348.16,201A41.88,41.88,0,0,1,512,955.86Z" transform="translate(-112 -58.14)"/><path class="cls-2" d="M512,78.14a31.89,31.89,0,0,1,15.92,4.27l348.16,201A31.94,31.94,0,0,1,892,311V713a31.94,31.94,0,0,1-15.92,27.58l-348.16,201a31.81,31.81,0,0,1-31.84,0l-348.16-201A31.94,31.94,0,0,1,132,713V311a31.94,31.94,0,0,1,15.92-27.58l348.16-201A31.89,31.89,0,0,1,512,78.14m0-20a51.81,51.81,0,0,0-25.92,7l-348.16,201A51.86,51.86,0,0,0,112,311V713a51.85,51.85,0,0,0,25.92,44.9l348.16,201a51.81,51.81,0,0,0,51.84,0l348.16-201A51.86,51.86,0,0,0,912,713V311a51.85,51.85,0,0,0-25.92-44.9l-348.16-201a51.81,51.81,0,0,0-25.92-7Z" transform="translate(-112 -58.14)"/><path class="cls-2" d="M212.15,685.27l42.65-24.13a16.51,16.51,0,0,1,16.37.06L504.76,795.75a16.5,16.5,0,0,0,16.48,0l233-134.2a16.49,16.49,0,0,0,8.27-14.3V566A16.51,16.51,0,0,0,746,549.5H204A16.51,16.51,0,0,1,187.46,533l-.44-199a16.54,16.54,0,0,1,8.26-14.34L504.73,141.27a16.52,16.52,0,0,1,16.53,0L811.92,310a16.5,16.5,0,0,1-.24,28.69l-43.46,24.27a16.52,16.52,0,0,1-16.36-.15L521.26,228.32a16.51,16.51,0,0,0-16.55,0L271.22,362.76A16.5,16.5,0,0,0,263,377l-.38,80.93a16.5,16.5,0,0,0,16.51,16.58h541.4A16.51,16.51,0,0,1,837,491V690a16.5,16.5,0,0,1-8.22,14.28L521.26,882.71a16.52,16.52,0,0,1-16.53,0L212,713.94A16.51,16.51,0,0,1,212.15,685.27Z" transform="translate(-112 -58.14)"/></svg>