<svg id="Capa_1" data-name="Capa 1" xmlns="http://www.w3.org/2000/svg" xmlns:xlink="http://www.w3.org/1999/xlink" viewBox="0 0 2141.5 907.72">
  <defs>
    <style>
      .cls-1 {
        fill: #fff;
      }

      .cls-2 {
        fill: url(#Degradado_sin_nombre_12);
      }

      .cls-3 {
        fill: url(#Degradado_sin_nombre_12-2);
      }
    </style>
    <linearGradient id="Degradado_sin_nombre_12" data-name="Degradado sin nombre 12" x1="34.794" y1="243.396" x2="766.554" y2="665.1" gradientUnits="userSpaceOnUse">
      <stop offset="0" stop-color="#4a2d92"/>
      <stop offset="0.71" stop-color="#7445ad"/>
      <stop offset="1" stop-color="#944cc0"/>
    </linearGradient>
    <linearGradient id="Degradado_sin_nombre_12-2" x1="1072.955" y1="226.795" x2="1710.037" y2="595.11" xlink:href="#Degradado_sin_nombre_12"/>
  </defs>
  <title>S-logo-rectangle</title>
  <path class="cls-1" d="M2090.143,800.86H613.234a51.351,51.351,0,0,0-25.635,6.856l-65.607,37.792C487.754,865.231,445,840.519,445,801.007V106.713c0-39.512,42.754-64.224,76.992-44.5L587.6,100a51.351,51.351,0,0,0,25.635,6.856H2090.143a51.357,51.357,0,0,1,51.357,51.357V749.5A51.357,51.357,0,0,1,2090.143,800.86Z"/>
  <g>
    <path class="cls-2" d="M400,897.719a41.9,41.9,0,0,1-20.921-5.605L30.922,691.106A41.959,41.959,0,0,1,10,654.869V252.852a41.962,41.962,0,0,1,20.921-36.238L379.078,15.606a41.842,41.842,0,0,1,41.843,0L769.078,216.614A41.96,41.96,0,0,1,790,252.851V654.869a41.957,41.957,0,0,1-20.922,36.236L420.922,892.114A41.906,41.906,0,0,1,400,897.719Z"/>
    <path class="cls-1" d="M400,20a31.883,31.883,0,0,1,15.921,4.266L764.078,225.274A31.932,31.932,0,0,1,780,252.851V654.868a31.932,31.932,0,0,1-15.922,27.577L415.922,883.454a31.844,31.844,0,0,1-31.843,0L35.922,682.445A31.93,31.93,0,0,1,20,654.869V252.852a31.932,31.932,0,0,1,15.922-27.577L384.078,24.266A31.886,31.886,0,0,1,400,20m0-20a51.808,51.808,0,0,0-25.922,6.946L25.922,207.954A51.843,51.843,0,0,0,0,252.852V654.869a51.842,51.842,0,0,0,25.922,44.9L374.079,900.774a51.841,51.841,0,0,0,51.843,0L774.078,699.766A51.843,51.843,0,0,0,800,654.868V252.851a51.842,51.842,0,0,0-25.922-44.9L425.921,6.946A51.8,51.8,0,0,0,400,0Z"/>
  </g>
  <path class="cls-1" d="M392.71,170.13,159.22,304.62a16.5,16.5,0,0,0-8.26,14.23l-.38,80.93a16.5,16.5,0,0,0,16.51,16.58h541.4A16.508,16.508,0,0,1,725,432.87V631.85a16.5,16.5,0,0,1-8.22,14.28L409.26,824.57a16.519,16.519,0,0,1-16.53.02L100.03,655.8a16.512,16.512,0,0,1,.12-28.67L142.8,603a16.513,16.513,0,0,1,16.37.06L392.76,737.61a16.5,16.5,0,0,0,16.48,0l232.99-134.2a16.489,16.489,0,0,0,8.27-14.3V507.87a16.508,16.508,0,0,0-16.51-16.51H91.97a16.512,16.512,0,0,1-16.51-16.47l-.44-198.97a16.536,16.536,0,0,1,8.26-14.34L392.73,83.13a16.519,16.519,0,0,1,16.53.02L699.92,251.81a16.5,16.5,0,0,1-.24,28.69l-43.46,24.27a16.52,16.52,0,0,1-16.36-.15L409.26,170.18A16.508,16.508,0,0,0,392.71,170.13Z"/>
  <g>
    <g>
      <path d="M1100.768,371.6l-33.541,9.054a14.244,14.244,0,0,1-16.942-8.441q-17.907-44.8-59.685-44.8-21.641,0-34.88,13.429t-13.243,33.2q0,22.382,13.429,32.828t61.553,26.113q59.315,19.776,85.428,44.579t26.113,69.2q0,49.994-37.305,84.5T990.973,665.768q-111.493,0-133.086-95.077a14.282,14.282,0,0,1,11.3-17.209l38.778-7.229a14.31,14.31,0,0,1,16.311,10.053q15.649,52.386,68.939,52.386,30.216,0,44.952-14.922t14.735-35.439q0-14.174-10.072-28.165T986.5,501.254q-44.4-14.172-66.962-26.486t-37.118-35.626q-14.549-23.308-14.549-52.786,0-48.123,35.067-81.884t90.65-33.76q86.886,0,116.868,82.208A14.279,14.279,0,0,1,1100.768,371.6Z"/>
      <path d="M1465.861,464.323q0,201.446-149.218,201.445-68.644,0-108-48.682t-39.357-149.033q0-197.336,149.219-197.341,67.891,0,107.624,48.123T1465.861,464.323Zm-82.816,3.917q0-79.355-17.673-108.971t-47.8-29.616q-65.469,0-65.47,138.587,0,70.785,15.249,104.686t50.221,33.9q34.589,0,50.029-34.46T1383.045,468.24Z"/>
      <path d="M1553.615,279.665h39.741a14.263,14.263,0,0,1,14.263,14.263v8.544c0,13.916,17.859,19.567,25.913,8.219q27.581-38.859,68.421-38.86h.12a14.218,14.218,0,0,1,14.1,14.263v52.339a14.319,14.319,0,0,1-14.491,14.36c-.425-.007-.836-.011-1.236-.011q-83.506,0-83.5,111.914V642.179a14.263,14.263,0,0,1-14.263,14.263h-49.067a14.263,14.263,0,0,1-14.263-14.263V293.928A14.262,14.262,0,0,1,1553.615,279.665Z"/>
      <path d="M1772.593,147.233h49.068a14.263,14.263,0,0,1,14.263,14.263v242.56c0,13.84,17.728,19.57,25.828,8.348l91.539-126.824a14.262,14.262,0,0,1,11.565-5.915h40.994a14.263,14.263,0,0,1,11.409,22.823l-75.244,100.275a14.262,14.262,0,0,0-1.656,14.283l96.092,219.411a14.263,14.263,0,0,1-13.065,19.985h-52.407a14.264,14.264,0,0,1-13.247-8.976l-62.177-155.78a14.263,14.263,0,0,0-24.8-3.08l-32.121,44.344a14.263,14.263,0,0,0-2.712,8.367V642.179a14.263,14.263,0,0,1-14.263,14.263h-49.068a14.263,14.263,0,0,1-14.263-14.263V161.5A14.263,14.263,0,0,1,1772.593,147.233Z"/>
    </g>
    <g>
      <path class="cls-3" d="M1100.768,371.6l-33.541,9.054a14.244,14.244,0,0,1-16.942-8.441q-17.907-44.8-59.685-44.8-21.641,0-34.88,13.429t-13.243,33.2q0,22.382,13.429,32.828t61.553,26.113q59.315,19.776,85.428,44.579t26.113,69.2q0,49.994-37.305,84.5T990.973,665.768q-111.493,0-133.086-95.077a14.282,14.282,0,0,1,11.3-17.209l38.778-7.229a14.31,14.31,0,0,1,16.311,10.053q15.649,52.386,68.939,52.386,30.216,0,44.952-14.922t14.735-35.439q0-14.174-10.072-28.165T986.5,501.254q-44.4-14.172-66.962-26.486t-37.118-35.626q-14.549-23.308-14.549-52.786,0-48.123,35.067-81.884t90.65-33.76q86.886,0,116.868,82.208A14.279,14.279,0,0,1,1100.768,371.6Z"/>
      <path class="cls-3" d="M1465.861,464.323q0,201.446-149.218,201.445-68.644,0-108-48.682t-39.357-149.033q0-197.336,149.219-197.341,67.891,0,107.624,48.123T1465.861,464.323Zm-82.816,3.917q0-79.355-17.673-108.971t-47.8-29.616q-65.469,0-65.47,138.587,0,70.785,15.249,104.686t50.221,33.9q34.589,0,50.029-34.46T1383.045,468.24Z"/>
      <path class="cls-3" d="M1553.615,279.665h39.741a14.263,14.263,0,0,1,14.263,14.263v8.544c0,13.916,17.859,19.567,25.913,8.219q27.581-38.859,68.421-38.86h.12a14.218,14.218,0,0,1,14.1,14.263v52.339a14.319,14.319,0,0,1-14.491,14.36c-.425-.007-.836-.011-1.236-.011q-83.506,0-83.5,111.914V642.179a14.263,14.263,0,0,1-14.263,14.263h-49.067a14.263,14.263,0,0,1-14.263-14.263V293.928A14.262,14.262,0,0,1,1553.615,279.665Z"/>
      <path class="cls-3" d="M1772.593,147.233h49.068a14.263,14.263,0,0,1,14.263,14.263v242.56c0,13.84,17.728,19.57,25.828,8.348l91.539-126.824a14.262,14.262,0,0,1,11.565-5.915h40.994a14.263,14.263,0,0,1,11.409,22.823l-75.244,100.275a14.262,14.262,0,0,0-1.656,14.283l96.092,219.411a14.263,14.263,0,0,1-13.065,19.985h-52.407a14.264,14.264,0,0,1-13.247-8.976l-62.177-155.78a14.263,14.263,0,0,0-24.8-3.08l-32.121,44.344a14.263,14.263,0,0,0-2.712,8.367V642.179a14.263,14.263,0,0,1-14.263,14.263h-49.068a14.263,14.263,0,0,1-14.263-14.263V161.5A14.263,14.263,0,0,1,1772.593,147.233Z"/>
    </g>
  </g>
</svg>
